<svg width="64" height="64" viewBox="0 0 64 64" fill="none" xmlns="http://www.w3.org/2000/svg">
  <defs>
    <linearGradient id="sollaGradient" x1="8" y1="8" x2="56" y2="56" gradientUnits="userSpaceOnUse">
      <stop stop-color="#0c8b47" />
      <stop offset="1" stop-color="#045d2f" />
    </linearGradient>
  </defs>
  <rect width="64" height="64" rx="14" fill="url(#sollaGradient)" />
  <path
    d="M45.5 20.8c-2.9-2.2-6.6-3.3-11-3.3-6.6 0-12.1 2.6-14.8 6.6-.7 1-.4 2.4.6 3.1l3.9 2.7c.9.6 2.1.5 2.9-.2 1.6-1.5 3.6-2.3 5.8-2.3 2.5 0 4 .7 4 2 0 1-.9 1.6-3.2 2.1l-2.9.6c-6.1 1.3-9.6 4.6-9.6 9.7 0 5.7 4.8 9.4 11.7 9.4 5.1 0 9.6-1.7 12.6-4.7.8-.7.8-1.9.2-2.7l-2.8-3.6c-.7-.9-2-1.1-2.9-.4-1.5 1.1-3.5 1.8-5.6 1.8-2.1 0-3.4-.7-3.4-1.9 0-1 .8-1.7 2.9-2.1l3.4-.8c6.2-1.4 9.6-4.7 9.6-9.7 0-3.6-1.6-6.6-4.4-8.7Z"
    fill="#f4fdf7"
  />
</svg>
